# xmcd
#
# Track frame offsets: 
#        150
#        11099
#        20598
#        29686
#        41922
#        55059
#        70485
#        85721
#        96233
#        107456
#        118193
#        126716
#        140112
#        146949
#        156599
#        169395
#        179907
#        188879
#        199577
#        208363
#        217263
#        225600
#        230859
#        244222
#        255784
#
# Disc length: 3556 seconds
#
# Revision: 1
# Processed by: cddbd v1.5.2PL0 Copyright (c) Steve Scherf et al.
# Submitted via: ExactAudioCopyFreeDBPlugin 1.0
#
DISCID=980de219
DTITLE=Jim Reeves - Welcome To My World - CD 12
DYEAR=2001
DGENRE=Country
TTITLE0=Lonely Music
TTITLE1=There's A Heartache Following Me
TTITLE2=You Kept Me Awake Last Night
TTITLE3=The Talking Walls
TTITLE4=Before I Died
TTITLE5=Little Ole Dime
TTITLE6=Bottle, Take Effect
TTITLE7=The World You Left Behind
TTITLE8=I've Enjoyed As Much Of This As I Can
TTITLE9=Don't Let Me Cross Over
TTITLE10=From A Jack To A King
TTITLE11=Silver Bells
TTITLE12=Born To Be Lucky
TTITLE13=Kimberley Jim
TTITLE14=Could I Be Falling In Love
TTITLE15=The Search Is Ended
TTITLE16=Strike It Rich
TTITLE17=I Grew Up
TTITLE18=Diamonds In The Sand
TTITLE19=A Stranger's Just A Friend
TTITLE20=Roving Gambler
TTITLE21=Dolly With The Dimpled Knees
TTITLE22=A Nickel Piece Of Candy
TTITLE23=Love Is No Excuse (& Dottie West)
TTITLE24=Look Who's Talking (& Dottie West)
EXTD=
EXTT0=
EXTT1=
EXTT2=
EXTT3=
EXTT4=
EXTT5=
EXTT6=
EXTT7=
EXTT8=
EXTT9=
EXTT10=
EXTT11=
EXTT12=
EXTT13=
EXTT14=
EXTT15=
EXTT16=
EXTT17=
EXTT18=
EXTT19=
EXTT20=
EXTT21=
EXTT22=
EXTT23=
EXTT24=
PLAYORDER=
